<svg version="1.2" xmlns="http://www.w3.org/2000/svg" viewBox="0 0 28 25" width="28" height="25"><style>.a{fill:#fff}</style><path class="a" d="m1.2 0h25v1.9h-25z"/><path class="a" d="m1.2 11.2h25v1.9h-25z"/><path class="a" d="m1.2 23.1h25v1.9h-25z"/><path class="a" d="m0.9 1.9c-0.5 0-0.9-0.4-0.9-1 0-0.5 0.4-0.9 0.9-0.9 0.6 0 1 0.4 1 0.9 0 0.6-0.4 1-1 1z"/><path class="a" d="m26.6 1.9c-0.6 0-1-0.4-1-1 0-0.5 0.4-0.9 1-0.9 0.5 0 0.9 0.4 0.9 0.9 0 0.6-0.4 1-0.9 1z"/><path class="a" d="m0.9 13.1c-0.5 0-0.9-0.4-0.9-0.9 0-0.5 0.4-1 0.9-1 0.6 0 1 0.5 1 1 0 0.5-0.4 0.9-1 0.9z"/><path class="a" d="m26.6 13.1c-0.6 0-1-0.4-1-0.9 0-0.5 0.4-1 1-1 0.5 0 0.9 0.5 0.9 1 0 0.5-0.4 0.9-0.9 0.9z"/><path class="a" d="m0.9 25c-0.5 0-0.9-0.4-0.9-0.9 0-0.6 0.4-1 0.9-1 0.6 0 1 0.4 1 1 0 0.5-0.4 0.9-1 0.9z"/><path class="a" d="m26.6 25c-0.6 0-1-0.4-1-0.9 0-0.6 0.4-1 1-1 0.5 0 0.9 0.4 0.9 1 0 0.5-0.4 0.9-0.9 0.9z"/></svg>