<svg version="1.2" xmlns="http://www.w3.org/2000/svg" viewBox="0 0 60 190" width="60" height="190"><style>.a{fill:#09f}.b{fill:#26cb15}.c{fill:#fff}</style><path class="a" d="m0 0h60v190h-60z"/><path class="b" d="m0 60v-60h60"/><path fill-rule="evenodd" class="c" d="m32.9 85.1c-0.6-0.5-0.9-1.3-0.9-2.1 0-0.8 0.3-1.6 0.9-2.1 0.5-0.6 1.3-0.9 2.1-0.9 0.8 0 1.6 0.3 2.1 0.9 0.6 0.5 0.9 1.3 0.9 2.1 0 0.8-0.3 1.6-0.9 2.1-0.5 0.6-1.3 0.9-2.1 0.9-0.8 0-1.6-0.3-2.1-0.9zm7.1 4.9c1.1 0 2 0.9 2 2 0 1.1-0.9 2-2 2h-4c-0.5 0-0.9-0.2-1.3-0.4l-2.5-2.1-3.8 3.1 2.7 1.7c0.6 0.4 0.9 1 0.9 1.7v8c0 1.1-0.9 2-2 2-1.1 0-2-0.9-2-2v-6.9l-3.8-2.4c-2-1.3-2.2-4.3-0.3-5.8l5.2-4c1.1-0.8 2.7-0.8 3.7 0l3.9 3.1zm-16.3 19.7c-1.5 1.5-3.6 2.3-5.7 2.3-2.1 0-4.2-0.8-5.7-2.3-1.5-1.5-2.3-3.6-2.3-5.7 0-2.1 0.8-4.2 2.3-5.7 1.5-1.5 3.6-2.3 5.7-2.3 2.1 0 4.2 0.8 5.7 2.3 1.5 1.5 2.3 3.6 2.3 5.7 0 2.1-0.8 4.2-2.3 5.7zm-8.9-2.5c0.9 0.8 2 1.3 3.2 1.3 1.2 0 2.3-0.5 3.2-1.3 0.8-0.9 1.3-2 1.3-3.2 0-1.2-0.5-2.3-1.3-3.2-0.9-0.8-2-1.3-3.2-1.3-1.2 0-2.3 0.5-3.2 1.3-0.8 0.9-1.3 2-1.3 3.2 0 1.2 0.5 2.3 1.3 3.2zm32.9 2.5c-1.5 1.5-3.6 2.3-5.7 2.3-2.1 0-4.2-0.8-5.7-2.3-1.5-1.5-2.3-3.6-2.3-5.7 0-2.1 0.8-4.2 2.3-5.7 1.5-1.5 3.6-2.3 5.7-2.3 2.1 0 4.2 0.8 5.7 2.3 1.5 1.5 2.3 3.6 2.3 5.7 0 2.1-0.8 4.2-2.3 5.7zm-8.9-2.5c0.9 0.8 2 1.3 3.2 1.3 1.2 0 2.3-0.5 3.2-1.3 0.8-0.9 1.3-2 1.3-3.2 0-1.2-0.5-2.3-1.3-3.2-0.9-0.8-2-1.3-3.2-1.3-1.2 0-2.3 0.5-3.2 1.3-0.8 0.9-1.3 2-1.3 3.2 0 1.2 0.5 2.3 1.3 3.2z"/><path fill-rule="evenodd" class="c" d="m18.4 10.6c-0.2-0.4-0.5-0.6-0.9-0.6-0.4 0-0.8 0.2-0.9 0.6l-2.1 4.2-4.6 0.7c-0.3 0-0.7 0.3-0.8 0.7-0.1 0.3 0 0.7 0.3 1l3.3 3.3-0.8 4.6c-0.1 0.4 0.1 0.8 0.4 1 0.3 0.3 0.8 0.3 1.1 0.1l4.1-2.2 4.1 2.2c0.3 0.2 0.8 0.2 1.1-0.1 0.3-0.2 0.5-0.6 0.4-1l-0.8-4.6 3.3-3.3c0.3-0.3 0.4-0.7 0.3-1-0.1-0.4-0.5-0.7-0.8-0.7l-4.6-0.7z"/></svg>