<svg version="1.2" xmlns="http://www.w3.org/2000/svg" viewBox="0 0 60 60" width="60" height="60"><style>.a{fill:#26cb15}.b{fill:#fff}</style><path class="a" d="m0 60v-60h60"/><path fill-rule="evenodd" class="b" d="m18.4 10.6c-0.2-0.4-0.5-0.6-0.9-0.6-0.4 0-0.8 0.2-0.9 0.6l-2.1 4.4-4.6 0.7c-0.3 0-0.7 0.3-0.8 0.7-0.1 0.4 0 0.8 0.3 1.1l3.3 3.4-0.8 4.8c-0.1 0.4 0.1 0.8 0.4 1 0.3 0.3 0.8 0.3 1.1 0.1l4.1-2.3 4.1 2.3c0.3 0.2 0.8 0.2 1.1-0.1 0.3-0.2 0.5-0.6 0.4-1l-0.8-4.8 3.3-3.4c0.3-0.3 0.4-0.7 0.3-1.1-0.1-0.4-0.5-0.7-0.8-0.7l-4.6-0.7z"/></svg>