<svg version="1.2" xmlns="http://www.w3.org/2000/svg" width="40" height="32"><path fill-rule="evenodd" d="M22.9 5.1c-.6-.5-.9-1.3-.9-2.1s.3-1.6.9-2.1C23.4.3 24.2 0 25 0s1.6.3 2.1.9c.6.5.9 1.3.9 2.1s-.3 1.6-.9 2.1c-.5.6-1.3.9-2.1.9s-1.6-.3-2.1-.9zM30 10c1.1 0 2 .9 2 2s-.9 2-2 2h-4c-.5 0-.9-.2-1.3-.4l-2.5-2.1-3.8 3.1 2.7 1.7c.6.4.9 1 .9 1.7v8c0 1.1-.9 2-2 2s-2-.9-2-2v-6.9l-3.8-2.4c-2-1.3-2.2-4.3-.3-5.8l5.2-4c1.1-.8 2.7-.8 3.7 0l3.9 3.1zM13.7 29.7C12.2 31.2 10.1 32 8 32s-4.2-.8-5.7-2.3C.8 28.2 0 26.1 0 24s.8-4.2 2.3-5.7C3.8 16.8 5.9 16 8 16s4.2.8 5.7 2.3c1.5 1.5 2.3 3.6 2.3 5.7s-.8 4.2-2.3 5.7zm-8.9-2.5c.9.8 2 1.3 3.2 1.3 1.2 0 2.3-.5 3.2-1.3.8-.9 1.3-2 1.3-3.2 0-1.2-.5-2.3-1.3-3.2-.9-.8-2-1.3-3.2-1.3-1.2 0-2.3.5-3.2 1.3-.8.9-1.3 2-1.3 3.2 0 1.2.5 2.3 1.3 3.2zm32.9 2.5C36.2 31.2 34.1 32 32 32s-4.2-.8-5.7-2.3C24.8 28.2 24 26.1 24 24s.8-4.2 2.3-5.7c1.5-1.5 3.6-2.3 5.7-2.3s4.2.8 5.7 2.3c1.5 1.5 2.3 3.6 2.3 5.7s-.8 4.2-2.3 5.7zm-8.9-2.5c.9.8 2 1.3 3.2 1.3 1.2 0 2.3-.5 3.2-1.3.8-.9 1.3-2 1.3-3.2 0-1.2-.5-2.3-1.3-3.2-.9-.8-2-1.3-3.2-1.3-1.2 0-2.3.5-3.2 1.3-.8.9-1.3 2-1.3 3.2 0 1.2.5 2.3 1.3 3.2z" style="fill:#fff"/></svg>