<svg version="1.2" xmlns="http://www.w3.org/2000/svg" width="28" height="25"><style>.a{fill:#fff}</style><path class="a" d="M1.2 0h25v1.9h-25zm0 11.2h25v1.9h-25zm0 11.9h25V25h-25z"/><path class="a" d="M.9 1.9c-.5 0-.9-.4-.9-1C0 .4.4 0 .9 0c.6 0 1 .4 1 .9 0 .6-.4 1-1 1zm25.7 0c-.6 0-1-.4-1-1 0-.5.4-.9 1-.9.5 0 .9.4.9.9 0 .6-.4 1-.9 1zM.9 13.1c-.5 0-.9-.4-.9-.9s.4-1 .9-1c.6 0 1 .5 1 1s-.4.9-1 .9zm25.7 0c-.6 0-1-.4-1-.9s.4-1 1-1c.5 0 .9.5.9 1s-.4.9-.9.9zM.9 25c-.5 0-.9-.4-.9-.9 0-.6.4-1 .9-1 .6 0 1 .4 1 1 0 .5-.4.9-1 .9zm25.7 0c-.6 0-1-.4-1-.9 0-.6.4-1 1-1 .5 0 .9.4.9 1 0 .5-.4.9-.9.9z"/></svg>