<svg version="1.2" xmlns="http://www.w3.org/2000/svg" width="60" height="190"><path d="M0 0h60v190H0z" style="fill:#09f"/><path d="M0 60V0h60" style="fill:#26cb15"/><path fill-rule="evenodd" d="M32.9 85.1c-.6-.5-.9-1.3-.9-2.1s.3-1.6.9-2.1c.5-.6 1.3-.9 2.1-.9s1.6.3 2.1.9c.6.5.9 1.3.9 2.1s-.3 1.6-.9 2.1c-.5.6-1.3.9-2.1.9s-1.6-.3-2.1-.9zM40 90c1.1 0 2 .9 2 2s-.9 2-2 2h-4c-.5 0-.9-.2-1.3-.4l-2.5-2.1-3.8 3.1 2.7 1.7c.6.4.9 1 .9 1.7v8c0 1.1-.9 2-2 2s-2-.9-2-2v-6.9l-3.8-2.4c-2-1.3-2.2-4.3-.3-5.8l5.2-4c1.1-.8 2.7-.8 3.7 0l3.9 3.1zm-16.3 19.7c-1.5 1.5-3.6 2.3-5.7 2.3s-4.2-.8-5.7-2.3c-1.5-1.5-2.3-3.6-2.3-5.7s.8-4.2 2.3-5.7c1.5-1.5 3.6-2.3 5.7-2.3s4.2.8 5.7 2.3c1.5 1.5 2.3 3.6 2.3 5.7s-.8 4.2-2.3 5.7zm-8.9-2.5c.9.8 2 1.3 3.2 1.3 1.2 0 2.3-.5 3.2-1.3.8-.9 1.3-2 1.3-3.2 0-1.2-.5-2.3-1.3-3.2-.9-.8-2-1.3-3.2-1.3-1.2 0-2.3.5-3.2 1.3-.8.9-1.3 2-1.3 3.2 0 1.2.5 2.3 1.3 3.2zm32.9 2.5c-1.5 1.5-3.6 2.3-5.7 2.3s-4.2-.8-5.7-2.3c-1.5-1.5-2.3-3.6-2.3-5.7s.8-4.2 2.3-5.7c1.5-1.5 3.6-2.3 5.7-2.3s4.2.8 5.7 2.3c1.5 1.5 2.3 3.6 2.3 5.7s-.8 4.2-2.3 5.7zm-8.9-2.5c.9.8 2 1.3 3.2 1.3 1.2 0 2.3-.5 3.2-1.3.8-.9 1.3-2 1.3-3.2 0-1.2-.5-2.3-1.3-3.2-.9-.8-2-1.3-3.2-1.3-1.2 0-2.3.5-3.2 1.3-.8.9-1.3 2-1.3 3.2 0 1.2.5 2.3 1.3 3.2zM18.4 10.6c-.2-.4-.5-.6-.9-.6s-.8.2-.9.6l-2.1 4.2-4.6.7c-.3 0-.7.3-.8.7-.1.3 0 .7.3 1l3.3 3.3-.8 4.6c-.1.4.1.8.4 1 .3.3.8.3 1.1.1l4.1-2.2 4.1 2.2c.3.2.8.2 1.1-.1.3-.2.5-.6.4-1l-.8-4.6 3.3-3.3c.3-.3.4-.7.3-1-.1-.4-.5-.7-.8-.7l-4.6-.7z" style="fill:#fff"/></svg>